# xmcd CD database file
#
# Track frame offsets:
#	150
#	24252
#	51637
#	75287
#	113200
#	140415
#	161770
#	192123
#	219743
#
# Disc length: 3144 seconds
#
# Revision: 0
# Processed by: cddbd v1.5.2PL0 Copyright (c) Steve Scherf et al.
# Submitted via: CDex 1.79
#
DISCID=770c4609
DTITLE=Bill Evans - At The Montreux Jazz Festival
DYEAR=1968
DGENRE=Jazz
TTITLE0=One For Helen
TTITLE1=A Sleepin' Bee
TTITLE2=Mother of Earl
TTITLE3=Nardis
TTITLE4=I Loves You Porgy
TTITLE5=The Touch Of Your Lips
TTITLE6=Embraceable You
TTITLE7=Someday My Prince Will Come
TTITLE8=Walkin' Up
EXTD=YEAR: 1968
EXTT0=
EXTT1=
EXTT2=
EXTT3=
EXTT4=
EXTT5=
EXTT6=
EXTT7=
EXTT8=
PLAYORDER=
